<?xml version="1.0" encoding="UTF-8" standalone="no"?>
<!-- Created with Inkscape (http://www.inkscape.org/) -->
<svg xmlns:dc="http://purl.org/dc/elements/1.1/" xmlns:cc="http://creativecommons.org/ns#" xmlns:rdf="http://www.w3.org/1999/02/22-rdf-syntax-ns#" xmlns:svg="http://www.w3.org/2000/svg" xmlns="http://www.w3.org/2000/svg" xmlns:sodipodi="http://sodipodi.sourceforge.net/DTD/sodipodi-0.dtd" xmlns:inkscape="http://www.inkscape.org/namespaces/inkscape" width="1164.0555" height="360.24484" id="svg2" sodipodi:version="0.32" inkscape:version="0.91 r13725" version="1.0" sodipodi:docname="logo-gnugraf_traco.svg" inkscape:output_extension="org.inkscape.output.svg.inkscape">
  <defs id="defs4">
    <filter inkscape:collect="always" id="filter3441">
      <feGaussianBlur inkscape:collect="always" stdDeviation="2.5648995" id="feGaussianBlur3443"></feGaussianBlur>
    </filter>
    <filter inkscape:collect="always" id="filter3445">
      <feGaussianBlur inkscape:collect="always" stdDeviation="2.5648995" id="feGaussianBlur3447"></feGaussianBlur>
    </filter>
    <filter inkscape:collect="always" id="filter3520">
      <feGaussianBlur inkscape:collect="always" stdDeviation="1.6471999" id="feGaussianBlur3522"></feGaussianBlur>
    </filter>
  </defs>
  <metadata id="metadata7"></metadata>
  <g inkscape:label="Camada 1" inkscape:groupmode="layer" id="layer1" transform="translate(48.94554,-272.20554)">
    <g id="g3638" transform="translate(38.385796,-7.0710678)" inkscape:export-filename="/home/cadunico/Área de Trabalho/gnu graf/LOGO2.png" inkscape:export-xdpi="90" inkscape:export-ydpi="90">
      <g id="g2477" transform="matrix(1.651006,0,0,1.651006,-237.49152,-275.59293)" inkscape:export-filename="/home/cadunico/Área de Trabalho/trabalhos/gnu graf/logo-gnugraf-grande.png" inkscape:export-xdpi="90" inkscape:export-ydpi="90">
        <path style="fill:#000000;fill-opacity:1;stroke:none;stroke-opacity:1;filter:url(#filter3441)" d="m 24.8125,40.125 c -4.262071,3.06e-4 -8.321514,0.232957 -12.09375,0.75 C 4.7495399,41.9673 1.5061801,47.58531 6.28125,52 c 1.829,1.69096 4.121119,2.186999 12.25,2.75 20.29652,1.40574 41.304417,6.791601 57.1875,14.625 9.38711,4.62965 24.55667,15.54929 38.4375,27.6875 8.72497,7.62962 23.58057,17.7611 33.46875,22.8125 6.28051,3.2084 11.39072,6.05212 11.375,6.34375 -0.0157,0.29162 -3.45072,2.55625 -7.625,5.03125 -16.41479,9.73257 -18.07107,12.11643 -12.40625,17.78125 6.10679,6.10679 18.81097,9.96979 29.0625,8.8125 10.6208,-1.19896 26.81043,-7.78565 23.90625,-9.71875 -0.9387,-0.62482 -0.41086,-0.69678 1.59375,-0.25 4.4181,0.9847 4.5,1.076 4.5,6.21875 0,0.65804 0.03,1.31007 0.0625,1.96875 0.001,0.0205 -0.001,0.042 0,0.0625 -10.05306,37.4891 -1.88219,80.557 22.28125,110.46875 -0.20338,6.24651 6.04715,14.6825 15.59375,20.8125 3.44788,2.21393 4.52631,2.7041 11.65625,2.8125 0.0401,0.0235 0.0849,0.0391 0.125,0.0625 6.43799,1.75841 13.15882,1.95406 19.625,0.8125 11.28486,-1.99226 21.83986,-8.05308 29.125,-17.03125 15.94482,-17.87136 23.70651,-41.55785 27.53125,-64.8125 1.49882,-12.34132 1.69324,-26.20589 -5.625,-36.84375 -2.84266,-3.28281 -6.41062,-4.90093 -10.28125,-5.8125 0.95015,-3.34595 1.5085,-6.3167 1.6875,-9.0625 0.65993,-10.12334 1.3982,-10.4811 11.5,-5.46875 12.23871,6.07266 21.19894,7.53534 31.71875,5.125 9.84058,-2.25471 19,-8.60018 19,-13.15625 0,-2.06918 -3.67087,-5.1449 -10.5,-8.8125 -6.78151,-3.64204 -12.5,-7.70249 -12.5,-8.84375 0,-0.42106 3.54218,-2.40933 7.875,-4.4375 8.25194,-3.86268 19.11177,-10.60531 27.75,-17.25 5.83847,-4.49106 25.62244,-20.529928 26.375,-21.375 1.60278,-1.79979 10.77385,-7.447692 19,-11.71875 9.57968,-4.97381 20.24915,-8.96041 31.78125,-11.84375 5.56857,-1.39229 30.14224,-4.440691 35.9375,-4.46875 4.7707,-0.0231 8.08145,-7.074801 4.84375,-10.3125 -3.34241,-3.34242 -28.07835,-4.389831 -42.8125,-1.8125 -18.96436,3.31729 -35.36514,9.57254 -54.4375,20.78125 -7.05344,4.14527 -14.1625,8.315519 -15.8125,9.28125 -1.65,0.96572 -7.46407,4.575369 -12.9375,8 -13.73566,8.59415 -23.24304,13.48874 -33.40625,17.25 -7.95179,2.94285 -9.59066,3.18989 -20.15625,3.125 -11.11937,-0.0683 -11.65021,-0.1503 -16.4375,-3.1875 -7.34147,-4.65765 -14.73467,-7.214562 -18.1875,-6.25 -1.93674,0.54104 -3.83121,0.341018 -5.8125,-0.65625 -1.9785,-0.99587 -4.46887,-1.29115 -7.71875,-0.90625 -2.6459,0.31336 -6.19111,0.08701 -7.875,-0.5 -2.23205,-0.7781 -4.24458,-0.751458 -7.375,0.125 -3.35958,0.94062 -5.17971,0.957337 -8.375,0 -3.44749,-1.03289 -4.72176,-0.980459 -8.1875,0.40625 -3.31827,1.32771 -4.89613,1.454009 -8.3125,0.59375 -3.10562,-0.782 -5.42089,-0.758491 -8.71875,0.125 -2.46871,0.66136 -7.57765,1.329077 -11.34375,1.5 -8.88991,0.40348 -13.00167,1.838856 -16.1875,5.625 -2.56685,3.05053 -2.67656,3.0882 -12.78125,3.1875 -8.06018,0.0792 -11.75702,-0.40965 -17.6875,-2.25 -7.84264,-2.43373 -23.60765,-10.184208 -33,-16.25 C 115.43005,70.49737 91.895032,56.25 90.5625,56.25 90.34712,56.25 86.745286,54.665249 82.53125,52.71875 65.390782,44.801425 43.281472,40.123673 24.8125,40.125 Z m 247.96875,126.75 c 0.29522,-0.001 0.60912,0.0211 0.90625,0.0625 0.30681,0.0428 0.58265,0.10145 0.875,0.1875 0.28356,0.0821 0.54366,0.19205 0.8125,0.3125 0.2689,0.1204 0.52821,0.24975 0.78125,0.40625 0.25296,0.15657 0.51407,0.34081 0.75,0.53125 1.41614,1.14209 2.49898,2.86053 3.15625,4.9375 0.43818,1.38465 0.67945,2.94245 0.6875,4.5625 0.004,0.81013 -0.0388,1.62689 -0.15625,2.46875 -0.0587,0.42093 -0.13215,0.84411 -0.21875,1.25 -0.17323,0.81178 -0.41309,1.57197 -0.6875,2.3125 -0.27434,0.74055 -0.57587,1.43923 -0.9375,2.09375 -0.007,0.0119 -0.0247,0.0194 -0.0312,0.0312 -0.35628,0.64041 -0.76065,1.26926 -1.1875,1.8125 -0.2176,0.27684 -0.45414,0.53239 -0.6875,0.78125 -0.23336,0.24886 -0.47135,0.46846 -0.71875,0.6875 -0.24162,0.21298 -0.49669,0.44218 -0.75,0.625 -1.0388,0.74948 -2.17742,1.23739 -3.34375,1.40625 -0.57341,0.0803 -1.16594,0.0815 -1.75,0 -0.60361,-0.0842 -1.17358,-0.25292 -1.71875,-0.5 -0.26043,-0.11661 -0.50443,-0.25574 -0.75,-0.40625 -0.007,-0.004 -0.0242,0.004 -0.0312,0 -0.25304,-0.1565 -0.48273,-0.3409 -0.71875,-0.53125 -0.93736,-0.75663 -1.75196,-1.76606 -2.375,-2.96875 -0.004,-0.008 0.004,-0.0231 0,-0.0312 -0.15622,-0.30335 -0.3041,-0.61156 -0.4375,-0.9375 -0.2668,-0.65188 -0.48767,-1.33379 -0.65625,-2.0625 -0.16858,-0.72871 -0.28264,-1.49375 -0.34375,-2.28125 -0.0917,-1.18125 -0.0512,-2.4247 0.125,-3.6875 0.0587,-0.42093 0.13214,-0.81286 0.21875,-1.21875 0.0756,-0.3542 0.15441,-0.72107 0.25,-1.0625 0.0142,-0.0507 0.0167,-0.10586 0.0312,-0.15625 0.094,-0.32417 0.20145,-0.62624 0.3125,-0.9375 0.0227,-0.0641 0.0391,-0.124 0.0625,-0.1875 0.10274,-0.27724 0.22817,-0.54667 0.34375,-0.8125 0.12604,-0.29078 0.26581,-0.59884 0.40625,-0.875 0.0703,-0.13827 0.145,-0.27183 0.21875,-0.40625 0.18087,-0.32725 0.3624,-0.63453 0.5625,-0.9375 0.2001,-0.30297 0.4074,-0.59816 0.625,-0.875 0.11368,-0.14462 0.22566,-0.30039 0.34375,-0.4375 0.0737,-0.0862 0.14341,-0.16687 0.21875,-0.25 0.0895,-0.0983 0.18952,-0.18729 0.28125,-0.28125 0.141,-0.14496 0.29149,-0.27195 0.4375,-0.40625 0.0656,-0.0601 0.12092,-0.12957 0.1875,-0.1875 0.12402,-0.10834 0.24781,-0.21201 0.375,-0.3125 0.1783,-0.14088 0.34724,-0.28136 0.53125,-0.40625 0.007,-0.005 0.0239,0.005 0.0312,0 0.18351,-0.12381 0.37393,-0.23646 0.5625,-0.34375 0.23701,-0.13492 0.47487,-0.23594 0.71875,-0.34375 0.0648,-0.0286 0.12231,-0.0671 0.1875,-0.0937 0.0817,-0.0335 0.16767,-0.0634 0.25,-0.0937 0.20809,-0.0764 0.4133,-0.16288 0.625,-0.21875 0.0717,-0.0191 0.14668,-0.0145 0.21875,-0.0312 0.46444,-0.10665 0.93102,-0.1854 1.40625,-0.1875 z" id="path3570" transform="matrix(0.7224603,0,0,0.7224603,124.13386,325.27404)" inkscape:connector-curvature="0"></path>
        <path style="fill:#000000;fill-opacity:1;stroke:none;stroke-opacity:1;filter:url(#filter3445)" d="m 256.25,91.71875 c -5.72146,0.08493 -11.39262,1.545856 -16.3125,4.5 -21.67324,14.49639 -35.44943,36.05393 -41.84375,59.875 5.1e-4,0.0104 -5.2e-4,0.0208 0,0.0312 0.49484,9.87045 4.84444,20.34182 19.40625,47.625 5.647,10.58028 7.513,16.80105 7.625,25.40625 0.10109,7.76648 -1.99013,19.00202 -4.4375,23.875 -0.94122,1.87406 -1.10135,3.64447 -0.5,5.71875 0.47836,1.65 0.613,4.71357 0.28125,6.78125 -0.055,0.34269 -0.082,0.67322 -0.0937,1.03125 7.55856,9.36106 16.65708,17.44594 27.28125,23.65625 1.86559,0.0288 4.04363,0.0312 6.90625,0.0312 14.12239,0 14.11812,-0.005 18.78125,-3.09375 5.41342,-3.58571 12.38319,-11.0996 14.1875,-15.3125 0.6882,-1.60688 1.06664,-4.53187 0.8125,-6.5 -0.25414,-1.96813 -0.043,-4.70873 0.46875,-6.0625 0.6911,-1.82809 0.41976,-3.59477 -1.03125,-6.875 -2.94798,-6.66441 -4.97296,-19.58867 -4.21875,-27 0.7298,-7.17156 3.66485,-14.477 12.46875,-31.15625 6.25344,-11.84735 10.07956,-20.58652 12.09375,-27.65625 -6.17726,-1.4548 -13.10221,-1.11726 -19.03125,-2.84375 -9.68463,-4.16943 -13.62301,-17.28743 -6.1875,-25.3125 5.13544,-8.37786 9.20071,-19.28012 3.90625,-28.59375 -5.22004,-11.857725 -17.97529,-18.311853 -30.5625,-18.125 z m 16.53125,75.15625 c 0.29522,-0.001 0.60912,0.0211 0.90625,0.0625 4.75406,0.66319 7.84577,6.67134 6.90625,13.40625 -0.93952,6.73491 -5.55844,11.66319 -10.3125,11 -4.75405,-0.66319 -7.84577,-6.67134 -6.90625,-13.40625 0.88081,-6.31398 4.97793,-11.04291 9.40625,-11.0625 z" id="path3572" transform="matrix(0.7224603,0,0,0.7224603,124.13386,325.27404)" inkscape:connector-curvature="0"></path>
        <path id="path3574" d="m 140.61499,352.81784 c -3.07918,2.2e-4 -6.01197,0.1683 -8.73726,0.54184 -5.75744,0.78915 -8.10064,4.84794 -4.65084,8.03738 1.32138,1.22165 2.97735,1.58001 8.85014,1.98676 14.66343,1.01559 29.8408,4.90666 41.3157,10.56598 6.78181,3.34474 17.74122,11.23375 27.76957,20.00312 6.30344,5.5121 17.03602,12.83169 24.17984,16.48113 4.53742,2.31794 8.22934,4.37241 8.21799,4.58311 -0.0114,0.21068 -2.49301,1.84678 -5.50876,3.63487 -11.85904,7.0314 -13.05563,8.75364 -8.96303,12.84625 4.41192,4.41191 13.59018,7.20278 20.99651,6.36668 7.6731,-0.8662 19.36947,-5.62482 17.27131,-7.02141 -0.67817,-0.45141 -0.29683,-0.50339 1.15142,-0.18061 3.19191,0.7114 3.25108,0.77736 3.25108,4.4928 0,0.4754 0.0217,0.94647 0.0451,1.42234 7.3e-4,0.0148 -7.6e-4,0.0303 0,0.0451 -7.26294,27.08439 -1.35981,58.19924 16.09732,79.80929 -0.14694,4.51286 4.36882,10.60752 11.26586,15.0362 2.49096,1.59948 3.27008,1.95361 8.42118,2.03192 0.029,0.017 0.0613,0.0283 0.0903,0.0452 4.65119,1.27038 9.50672,1.41173 14.17828,0.587 8.15287,-1.43933 15.77843,-5.81803 21.04166,-12.3044 11.5195,-12.91135 17.12701,-30.0239 19.89023,-46.82446 1.08284,-8.91612 1.2233,-18.93272 -4.06384,-26.61815 -2.0537,-2.3717 -4.63141,-3.54073 -7.42779,-4.1993 0.68644,-2.41732 1.08983,-4.56356 1.21915,-6.5473 0.47677,-7.31371 1.01015,-7.57218 8.30829,-3.95095 8.84199,4.38725 15.3154,5.44398 22.91554,3.70261 7.10943,-1.62894 13.72675,-6.21329 13.72675,-9.50487 0,-1.4949 -2.65206,-3.71699 -7.58584,-6.36668 -4.89937,-2.63123 -9.03075,-5.56475 -9.03075,-6.38926 0,-0.3042 2.55909,-1.74065 5.68938,-3.20592 5.96169,-2.79063 13.80749,-7.66191 20.04827,-12.46244 4.21806,-3.24461 18.51119,-14.83206 19.05489,-15.44259 1.15794,-1.30027 7.78368,-5.38066 13.72675,-8.46633 6.92093,-3.59338 14.6292,-6.47354 22.96069,-8.55664 4.02307,-1.00587 21.77657,-3.20822 25.96341,-3.22849 3.44665,-0.0167 5.83853,-5.11126 3.49942,-7.45037 -2.41476,-2.41477 -20.28549,-3.17148 -30.93033,-1.30946 -13.701,2.39661 -25.54991,6.91578 -39.32893,15.01362 -5.09583,2.9948 -10.23185,6.00764 -11.42391,6.70534 -1.19206,0.69769 -5.39249,3.30552 -9.34683,5.77968 -9.92347,6.20893 -16.79217,9.74508 -24.13469,12.46244 -5.74485,2.12609 -6.92887,2.30457 -14.56209,2.25769 -8.0333,-0.0493 -8.41681,-0.10859 -11.87544,-2.30284 -5.30392,-3.36497 -10.64521,-5.21224 -13.13974,-4.51538 -1.39922,0.39088 -2.7679,0.24637 -4.19931,-0.47411 -1.42938,-0.71948 -3.22858,-0.93281 -5.57649,-0.65473 -1.91155,0.22639 -4.47283,0.0629 -5.68937,-0.36123 -1.61257,-0.56215 -3.06654,-0.5429 -5.32815,0.0903 -2.42716,0.67957 -3.74213,0.69164 -6.0506,0 -2.49067,-0.74622 -3.41128,-0.70834 -5.91514,0.2935 -2.39732,0.95922 -3.53726,1.05047 -6.00546,0.42896 -2.24368,-0.56496 -3.91637,-0.54797 -6.29895,0.0903 -1.78354,0.47781 -5.47455,0.96021 -8.1954,1.08369 -6.42261,0.2915 -9.3932,1.3285 -11.69483,4.06384 -1.85445,2.20389 -1.93371,2.2311 -9.23395,2.30284 -5.82316,0.0572 -8.49398,-0.29595 -12.77851,-1.62553 -5.666,-1.75827 -17.05559,-7.35769 -23.84119,-11.73998 -14.16109,-9.14554 -31.16421,-19.4387 -32.12691,-19.4387 -0.1556,0 -2.75779,-1.14492 -5.80226,-2.55119 -12.38331,-5.71995 -28.35641,-9.09944 -41.6995,-9.09848 z m 179.14757,91.57184 c 0.21329,-9.4e-4 0.44007,0.0152 0.65473,0.0452 0.22166,0.0309 0.42094,0.0733 0.63216,0.13546 0.20486,0.0593 0.39277,0.13875 0.58699,0.22577 0.19427,0.087 0.38162,0.18043 0.56443,0.2935 0.18275,0.11311 0.37139,0.24622 0.54184,0.3838 1.02311,0.82512 1.80542,2.06662 2.28027,3.56715 0.31656,1.00035 0.49087,2.1258 0.49669,3.29623 0.003,0.58528 -0.028,1.17536 -0.11289,1.78357 -0.0424,0.3041 -0.0955,0.60984 -0.15803,0.90307 -0.12516,0.58648 -0.29845,1.13569 -0.4967,1.67069 -0.1982,0.53502 -0.41604,1.03979 -0.6773,1.51266 -0.005,0.009 -0.0178,0.014 -0.0226,0.0226 -0.2574,0.46267 -0.54954,0.91699 -0.85792,1.30946 -0.15721,0.20001 -0.3281,0.38463 -0.49669,0.56442 -0.1686,0.17979 -0.34053,0.33845 -0.51927,0.49669 -0.17456,0.15387 -0.35884,0.31946 -0.54185,0.45154 -0.75049,0.54147 -1.57309,0.89397 -2.41572,1.01596 -0.41427,0.058 -0.84235,0.0589 -1.26431,0 -0.43608,-0.0608 -0.84786,-0.18272 -1.24173,-0.36123 -0.18815,-0.0842 -0.36443,-0.18476 -0.54184,-0.2935 -0.005,-0.003 -0.0175,0.003 -0.0226,0 -0.18281,-0.11306 -0.34875,-0.24628 -0.51927,-0.3838 -0.6772,-0.54664 -1.26572,-1.27591 -1.71584,-2.14481 -0.003,-0.006 0.003,-0.0167 0,-0.0226 -0.11286,-0.21915 -0.2197,-0.44182 -0.31608,-0.6773 -0.19275,-0.47096 -0.35232,-0.96361 -0.47411,-1.49008 -0.12179,-0.52646 -0.2042,-1.07917 -0.24835,-1.64811 -0.0662,-0.8534 -0.037,-1.75175 0.0903,-2.66407 0.0424,-0.30411 0.0955,-0.58726 0.15804,-0.8805 0.0546,-0.25589 0.11155,-0.52094 0.18061,-0.76761 0.0102,-0.0366 0.012,-0.0765 0.0226,-0.11289 0.0679,-0.2342 0.14554,-0.45243 0.22577,-0.6773 0.0164,-0.0463 0.0283,-0.0896 0.0451,-0.13547 0.0742,-0.20029 0.16485,-0.39494 0.24835,-0.58699 0.0911,-0.21008 0.19204,-0.43264 0.2935,-0.63216 0.0508,-0.0999 0.10476,-0.19638 0.15804,-0.2935 0.13067,-0.23642 0.26182,-0.45842 0.40638,-0.6773 0.14457,-0.21889 0.29433,-0.43215 0.45154,-0.63216 0.0821,-0.10448 0.16303,-0.21702 0.24834,-0.31607 0.0532,-0.0622 0.10361,-0.12056 0.15804,-0.18062 0.0647,-0.071 0.13692,-0.13531 0.20319,-0.20319 0.10187,-0.10473 0.21059,-0.19647 0.31608,-0.2935 0.0474,-0.0434 0.0874,-0.0936 0.13546,-0.13546 0.0896,-0.0783 0.17904,-0.15317 0.27092,-0.22577 0.12882,-0.10178 0.25087,-0.20327 0.38381,-0.2935 0.005,-0.004 0.0173,0.004 0.0226,0 0.13258,-0.0894 0.27015,-0.17083 0.40638,-0.24834 0.17123,-0.0975 0.34308,-0.17046 0.51927,-0.24835 0.0468,-0.0207 0.0884,-0.0485 0.13546,-0.0677 0.059,-0.0242 0.12114,-0.0458 0.18062,-0.0677 0.15033,-0.0552 0.29859,-0.11768 0.45154,-0.15804 0.0518,-0.0138 0.10597,-0.0105 0.15803,-0.0226 0.33554,-0.0771 0.67263,-0.13394 1.01596,-0.13546 z" style="fill:#338000;fill-opacity:1;stroke:none;stroke-opacity:1" inkscape:connector-curvature="0"></path>
        <path id="path3576" d="m 307.81939,390.09228 c -4.13353,0.0614 -8.23071,1.11681 -11.78513,3.25107 -15.65806,10.47306 -25.61081,26.04753 -30.23045,43.25731 3.7e-4,0.008 -3.8e-4,0.015 0,0.0226 0.3575,7.13101 3.49992,14.69616 14.02024,34.40718 4.07974,7.64383 5.42785,12.13809 5.50876,18.355 0.073,5.61098 -1.43779,13.72821 -3.20591,17.24874 -0.68,1.35394 -0.79568,2.63299 -0.36123,4.13157 0.34559,1.19206 0.44286,3.40537 0.20319,4.89919 -0.0397,0.24758 -0.0592,0.48637 -0.0677,0.74503 5.46076,6.763 12.03408,12.604 19.70962,17.0907 1.34781,0.0208 2.92136,0.0226 4.98949,0.0226 10.20287,0 10.19978,-0.004 13.56871,-2.23511 3.91098,-2.59053 8.94636,-8.01902 10.2499,-11.06267 0.4972,-1.16091 0.77061,-3.2741 0.587,-4.696 -0.1836,-1.42189 -0.0311,-3.40187 0.33865,-4.37991 0.4993,-1.32072 0.30326,-2.59708 -0.74503,-4.96692 -2.1298,-4.81477 -3.59277,-14.15203 -3.04788,-19.50642 0.52725,-5.18117 2.64771,-10.45906 9.00818,-22.50916 4.51786,-8.55924 7.28208,-14.87294 8.73725,-19.98054 -4.46283,-1.05104 -9.46583,-0.80718 -13.74932,-2.0545 -6.99676,-3.01224 -9.84209,-12.48948 -4.47023,-18.28727 3.71016,-6.05267 6.64715,-13.92912 2.82211,-20.65785 -3.77127,-8.56674 -12.98643,-13.22959 -22.08019,-13.09459 z m 11.94317,54.2974 c 0.21329,-9.4e-4 0.44007,0.0152 0.65473,0.0452 3.43462,0.47912 5.66826,4.81977 4.98949,9.68548 -0.67876,4.8657 -4.01575,8.42619 -7.45037,7.94706 -3.43461,-0.47913 -5.66825,-4.81978 -4.98949,-9.68548 0.63635,-4.5616 3.59636,-7.97807 6.79564,-7.99222 z" style="fill:#ffcc00;fill-opacity:1;stroke:none;stroke-opacity:1" inkscape:connector-curvature="0"></path>
        <path id="path3578" d="m 483.02709,356.65176 c -0.0641,2.31038 -1.95959,4.8698 -4.38893,4.88156 -4.15265,0.0201 -21.76116,2.20446 -25.75137,3.20213 -8.26344,2.06609 -15.90876,4.92272 -22.77317,8.48676 -5.89453,3.06047 -12.46615,7.10752 -13.61463,8.39718 -0.53926,0.60555 -14.71566,12.09835 -18.89928,15.31647 -6.18981,4.76132 -13.97152,9.59281 -19.88453,12.36065 -3.10472,1.45331 -5.64291,2.87802 -5.64291,3.17974 0,0.37559 0.9009,1.19048 2.30643,2.21685 0.98203,-0.61918 2.72217,-1.53908 4.79199,-2.50795 5.91301,-2.76783 13.69473,-7.59935 19.88454,-12.36066 4.18361,-3.21811 18.36001,-14.71092 18.89927,-15.31647 1.14849,-1.28965 7.72011,-5.33671 13.61463,-8.39718 6.86442,-3.56403 14.50973,-6.42067 22.77317,-8.48676 3.99022,-0.99766 21.59872,-3.18202 25.75137,-3.20212 3.4185,-0.0166 5.79084,-5.06952 3.47084,-7.38953 -0.13148,-0.13148 -0.31727,-0.25926 -0.53742,-0.38067 z m -356.69007,2.396 c 0.039,1.01148 0.54326,2.05537 1.58987,3.02298 1.31059,1.21168 2.95303,1.56712 8.77786,1.97054 14.54367,1.0073 29.59708,4.86659 40.97826,10.47969 6.72643,3.31742 17.59633,11.142 27.54277,19.83975 6.25196,5.46708 16.89689,12.72689 23.98237,16.34652 2.01671,1.03024 3.81501,1.97005 5.23984,2.75428 0.87651,-0.58449 1.45026,-0.99976 1.45551,-1.09723 0.0113,-0.20897 -3.65051,-2.24668 -8.15087,-4.54568 -7.08547,-3.61963 -17.73039,-10.87945 -23.98236,-16.34652 -9.94644,-8.69775 -20.81634,-16.52234 -27.54277,-19.83975 -11.38118,-5.6131 -26.43459,-9.4724 -40.97827,-10.47969 -5.82483,-0.40342 -7.46727,-0.75887 -8.77785,-1.97054 -0.0493,-0.0456 -0.0875,-0.0885 -0.13436,-0.13435 z m 262.17134,66.61767 c -0.65475,3.20765 -6.89987,7.36156 -13.56985,8.88982 -7.53807,1.72716 -13.95862,0.67905 -22.72838,-3.67237 -7.23855,-3.59165 -7.76756,-3.3353 -8.24044,3.91868 -0.12827,1.96754 -0.52836,4.09625 -1.2092,6.49383 0.69339,0.1633 1.37618,0.3449 2.03772,0.5822 0.32884,-1.48411 0.54162,-2.87784 0.62699,-4.18739 0.47288,-7.25396 1.00189,-7.51034 8.24044,-3.91869 8.76977,4.35144 15.19031,5.39952 22.72838,3.67237 7.05137,-1.61562 13.61464,-6.16254 13.61464,-9.42724 0,-0.64731 -0.52813,-1.45367 -1.5003,-2.35121 z m -129.2047,2.01532 c -0.19003,0.0288 -0.13479,0.15682 0.20153,0.38068 2.08102,1.38518 -9.51981,6.10493 -17.13026,6.96406 -7.34583,0.82927 -16.44913,-1.93881 -20.82502,-6.31468 -0.23786,-0.23786 -0.44861,-0.47093 -0.64938,-0.69417 -0.0172,1.11787 0.74579,2.2237 2.10489,3.5828 4.37588,4.3759 13.47919,7.14395 20.82503,6.31469 7.61044,-0.85912 19.21127,-5.57889 17.13025,-6.96407 -0.67263,-0.44771 -0.2944,-0.49929 1.14202,-0.17914 0.75712,0.16875 1.32562,0.29407 1.76901,0.44785 -0.0467,-2.58593 -0.41844,-2.71107 -3.22452,-3.33648 -0.71821,-0.16008 -1.15352,-0.23037 -1.34355,-0.20154 z m 58.13092,13.81617 c -0.19832,8.8e-4 -0.38624,0.0181 -0.5822,0.0448 -0.1454,0.0228 -0.28103,0.0564 -0.42546,0.0896 -0.0516,0.012 -0.10537,0.009 -0.15675,0.0224 -0.1517,0.04 -0.29874,0.10201 -0.44785,0.15675 -0.0435,0.016 -0.0911,0.0275 -0.13435,0.0448 -0.0156,0.006 -0.0296,0.0161 -0.0448,0.0224 -0.0467,0.0191 -0.0879,0.0467 -0.13435,0.0672 -0.17476,0.0772 -0.3452,0.14962 -0.51503,0.24631 -0.13512,0.0769 -0.27157,0.15759 -0.40307,0.24632 -0.005,0.004 -0.0171,-0.004 -0.0224,0 -0.13186,0.0895 -0.25291,0.19015 -0.38067,0.2911 -0.0247,0.0195 -0.0428,0.0473 -0.0672,0.0672 -0.0292,0.0237 -0.0606,0.0429 -0.0896,0.0672 -0.0365,0.0308 -0.0755,0.0577 -0.11196,0.0896 -0.0477,0.0415 -0.0873,0.0913 -0.13436,0.13436 -0.0894,0.0822 -0.18194,0.15852 -0.26871,0.24632 -0.0152,0.0149 -0.0298,0.0294 -0.0448,0.0448 -0.0657,0.0673 -0.13741,0.13108 -0.20154,0.20154 -0.054,0.0596 -0.10394,0.11739 -0.15674,0.17913 -0.0846,0.0983 -0.16486,0.20986 -0.24632,0.3135 -0.15593,0.19837 -0.30446,0.40989 -0.44785,0.62699 -0.14339,0.2171 -0.27346,0.43727 -0.40307,0.67178 -0.0452,0.0824 -0.0909,0.16189 -0.13435,0.24631 -0.008,0.0149 -0.0148,0.0298 -0.0224,0.0448 -0.10063,0.19788 -0.20079,0.41862 -0.2911,0.62698 -0.0828,0.19049 -0.1727,0.38354 -0.24632,0.58221 -0.0168,0.0455 -0.0285,0.0884 -0.0448,0.13436 -0.0796,0.22303 -0.15659,0.43948 -0.22393,0.67177 -0.0105,0.0361 -0.0122,0.0756 -0.0224,0.11196 -0.0685,0.24466 -0.12497,0.50754 -0.17913,0.76135 -0.0621,0.29084 -0.11468,0.57168 -0.15675,0.8733 -0.0547,0.39191 -0.0712,0.7802 -0.0896,1.16442 -0.003,0.0593 -0.0204,0.12003 -0.0224,0.17914 -0.004,0.14295 -6.8e-4,0.28413 0,0.42545 5.7e-4,0.2935 3.1e-4,0.58873 0.0224,0.87331 0.0438,0.5643 0.12552,1.11248 0.24632,1.63466 0.12079,0.52216 0.27906,1.01078 0.47024,1.4779 0.0956,0.23355 0.20155,0.4544 0.31349,0.67177 0.003,0.006 -0.003,0.0166 0,0.0224 0.10935,0.21106 0.23425,0.41039 0.35828,0.60459 0.14127,0.21922 0.29248,0.41148 0.44786,0.6046 -0.0469,-0.16263 -0.0952,-0.32336 -0.13436,-0.49264 -0.1208,-0.52215 -0.20253,-1.07036 -0.24632,-1.63465 -0.0221,-0.28455 -0.0218,-0.57982 -0.0224,-0.8733 -6.8e-4,-0.1413 -0.004,-0.28251 0,-0.42546 0.002,-0.0591 0.0196,-0.1198 0.0224,-0.17914 0.0184,-0.38419 0.0349,-0.77251 0.0896,-1.16441 0.0421,-0.30161 0.0947,-0.58246 0.15675,-0.87331 0.0542,-0.25379 0.11065,-0.51669 0.17913,-0.76134 0.0102,-0.0363 0.0119,-0.0759 0.0224,-0.11196 0.0673,-0.23228 0.14435,-0.44875 0.22393,-0.67178 0.0162,-0.0459 0.028,-0.0889 0.0448,-0.13436 0.0736,-0.19864 0.1635,-0.39172 0.24632,-0.5822 0.0903,-0.20834 0.19047,-0.42911 0.2911,-0.62699 0.008,-0.015 0.0146,-0.0299 0.0224,-0.0448 0.0434,-0.0844 0.0891,-0.16393 0.13435,-0.24633 0.1296,-0.23447 0.25968,-0.45467 0.40306,-0.67177 0.14339,-0.21708 0.29193,-0.42861 0.44786,-0.62699 0.0815,-0.10361 0.16169,-0.21525 0.24631,-0.31349 0.0528,-0.0617 0.10276,-0.11958 0.15675,-0.17914 0.0641,-0.0704 0.1358,-0.13421 0.20153,-0.20153 0.0149,-0.0154 0.0296,-0.0299 0.0448,-0.0448 0.0868,-0.0878 0.17934,-0.16412 0.2687,-0.24632 0.047,-0.0431 0.0866,-0.0928 0.13436,-0.13435 0.0364,-0.0318 0.0754,-0.0588 0.11196,-0.0896 0.029,-0.0243 0.0604,-0.0435 0.0896,-0.0672 0.0243,-0.0198 0.0425,-0.0477 0.0672,-0.0672 0.12776,-0.10093 0.24882,-0.20161 0.38067,-0.2911 0.005,-0.004 0.0171,0.004 0.0224,0 0.1315,-0.0887 0.26795,-0.16944 0.40307,-0.24631 0.16983,-0.0967 0.34027,-0.16907 0.51503,-0.24633 0.0464,-0.0205 0.0876,-0.0481 0.13435,-0.0672 0.0152,-0.006 0.0292,-0.0164 0.0448,-0.0224 0.0433,-0.0172 0.0908,-0.0288 0.13435,-0.0448 0.14911,-0.0547 0.29616,-0.11671 0.44785,-0.15675 0.0514,-0.0137 0.1051,-0.0104 0.15675,-0.0224 0.14444,-0.0332 0.28006,-0.0668 0.42546,-0.0896 0.19596,-0.0267 0.38388,-0.0439 0.5822,-0.0448 0.21154,-9.3e-4 0.43648,0.0151 0.64938,0.0448 0.21985,0.0307 0.41751,0.0727 0.62699,0.13436 0.20319,0.0588 0.38957,0.13761 0.58221,0.22392 0.19268,0.0863 0.37849,0.17896 0.55981,0.29111 0.18126,0.1122 0.36836,0.2442 0.53742,0.38067 0.25369,0.20461 0.49376,0.44039 0.71656,0.69417 0.0557,0.0634 0.10522,0.1339 0.15675,0.20153 -0.0234,-0.0814 -0.0419,-0.16654 -0.0672,-0.24632 -0.10538,-0.333 -0.2231,-0.65737 -0.35828,-0.96288 -0.0165,-0.037 -0.0279,-0.0754 -0.0448,-0.11196 -0.0493,-0.10739 -0.10387,-0.20994 -0.15675,-0.3135 -0.031,-0.0602 -0.0574,-0.12027 -0.0896,-0.17914 -0.1726,-0.31841 -0.37562,-0.59677 -0.58221,-0.8733 -0.10329,-0.13828 -0.20209,-0.27619 -0.31349,-0.40307 -0.2228,-0.25378 -0.46287,-0.48958 -0.71656,-0.69417 -0.16906,-0.13646 -0.35616,-0.26849 -0.53742,-0.38067 -0.18132,-0.11214 -0.36713,-0.20484 -0.55981,-0.2911 -0.19265,-0.0863 -0.37902,-0.16512 -0.58221,-0.22393 -0.20948,-0.0617 -0.40714,-0.10369 -0.62699,-0.13435 -0.21291,-0.0297 -0.43784,-0.0457 -0.64938,-0.0448 z m 34.97708,8.17327 c 2.8768,6.86664 2.63193,14.90117 1.74662,22.19096 -2.74066,16.66335 -8.30238,33.63613 -19.72779,46.44204 -5.22024,6.43339 -12.78353,10.77632 -20.86982,12.2039 -4.6334,0.818 -9.44928,0.6778 -14.06248,-0.5822 -0.023,-0.0134 -0.0433,-0.0328 -0.0672,-0.0448 -0.006,-0.003 -0.0169,0.003 -0.0224,0 -5.10903,-0.0777 -5.88179,-0.42892 -8.3524,-2.01533 -4.0226,-2.58297 -7.20704,-5.75192 -9.13614,-8.82264 1.40294,3.89628 5.27789,8.29923 10.59165,11.71127 2.47061,1.58643 3.24338,1.93765 8.35241,2.01532 0.006,0.003 0.0168,-0.003 0.0224,0 0.0238,0.012 0.0442,0.0314 0.0672,0.0448 4.6132,1.26002 9.42908,1.40021 14.06249,0.58221 8.08628,-1.42756 15.64957,-5.77052 20.86981,-12.20392 11.42541,-12.80588 16.98713,-29.77868 19.72779,-46.44203 1.01316,-8.34243 1.18303,-17.65188 -3.20213,-25.07959 z m -81.03845,50.29354 c 2.39904,4.98303 5.25228,9.71426 8.57633,14.08488 -0.0459,-0.37462 -0.0788,-0.74088 -0.0672,-1.09723 -0.004,-0.005 0.004,-0.0178 0,-0.0224 -3.24486,-4.01868 -6.07961,-8.37312 -8.50915,-12.96525 z" style="fill:#ffffff;fill-opacity:1;stroke:none;stroke-opacity:1" inkscape:connector-curvature="0"></path>
        <g transform="translate(0.5714307,243.99075)" style="fill:#000000;filter:url(#filter3520)" id="g3582">
          <g style="font-style:normal;font-variant:normal;font-weight:normal;font-stretch:normal;font-size:111.37973022px;line-height:125%;font-family:'No Clocks';-inkscape-font-specification:'No Clocks';text-align:start;writing-mode:lr-tb;text-anchor:start;fill:#000000;fill-opacity:1;stroke:none;stroke-width:1px;stroke-linecap:butt;stroke-linejoin:miter;stroke-opacity:1" id="text3584">
            <path id="path4198" d="m 682.18697,270.52984 -6.46003,0 q -10.80383,0 -10.58107,-8.35348 0.11138,-7.79658 10.58107,-7.79658 l 6.46003,0 0,-2.7845 q 0,-8.68762 5.79174,-14.47936 3.78692,-3.78691 6.79417,-4.90071 3.89829,-1.78208 11.69487,-1.78208 l 40.20808,0 q 10.35832,0 10.35832,8.57624 0,8.01934 -10.35832,8.01934 l -48.3388,0 0,7.35107 26.06286,0 q 10.35831,0 10.35831,8.46485 0,7.68521 -10.35831,7.68521 l -26.06286,0 0,16.03868 q 0,3.34139 -2.22759,5.79174 -2.2276,2.45036 -5.56899,2.56174 -3.56415,0 -6.01451,-2.45036 -2.33897,-2.45035 -2.33897,-5.90312 l 0,-16.03868 z m -25.43808,24.39216 0,-39.87395 -69.38957,0 q -9.24452,0 -15.70454,5.68037 -6.68279,5.79175 -6.79417,13.92247 -0.22275,8.35348 6.01451,14.36798 6.46002,5.90313 15.3704,5.90313 l 39.42843,0 14.92488,-14.92489 0,14.92489 16.15006,0 z m -16.26144,-16.37282 -58.8085,0 0,-7.01693 58.8085,0 0,7.01693 z m -144.0836,8.57624 q 0,3.67553 -2.56174,5.90312 -2.45035,2.11622 -5.90312,2.11622 -3.3414,0 -5.90313,-2.11622 -2.45035,-2.11621 -2.45035,-5.90312 -0.33414,-2.00484 0,-12.47453 0.11138,-8.13072 6.79416,-13.92247 6.46002,-5.68037 15.70454,-5.68037 l 44.55189,0 q 10.24694,0 10.35832,8.13072 0.11138,3.78691 -2.67311,6.12589 -2.67312,2.22759 -7.68521,2.22759 l -50.23225,0 0,15.59317 z" inkscape:connector-curvature="0"></path>
          </g>
          <g style="font-style:normal;font-variant:normal;font-weight:normal;font-stretch:normal;font-size:111.37973022px;line-height:125%;font-family:'No Clocks';-inkscape-font-specification:'No Clocks';text-align:start;writing-mode:lr-tb;text-anchor:start;fill:#000000;fill-opacity:1;stroke:none;stroke-width:1px;stroke-linecap:butt;stroke-linejoin:miter;stroke-opacity:1" id="text3588">
            <path id="path4204" d="m 677.51677,239.36363 -75.40407,0 q -4.34381,0 -7.90797,-1.44793 -3.45277,-1.55932 -5.90312,-4.23243 -2.45036,-2.67312 -3.78691,-6.46003 -1.33656,-3.78691 -1.33656,-8.35348 l 0,-11.58349 q 0,-8.799 8.57624,-8.799 7.57382,0 7.57382,8.799 l 0,16.15006 61.03609,0 0,-16.15006 q 0,-8.799 9.24452,-8.799 7.90796,0 7.90796,8.799 l 0,32.07736 z m -196.3642,-8.46486 0,-32.18874 73.39924,0 q 8.799,0 14.8135,6.01451 6.12589,6.0145 6.12589,14.59074 l 0,11.58349 q 0,8.57624 -7.90796,8.57624 -9.24452,0 -9.24452,-8.57624 l 0,-16.15006 -61.03609,0 0,16.15006 q 0,8.57624 -7.57382,8.57624 -8.57624,0 -8.57624,-8.57624 z" inkscape:connector-curvature="0"></path>
          </g>
          <g style="font-style:normal;font-variant:normal;font-weight:normal;font-stretch:normal;font-size:119.92533875px;line-height:125%;font-family:'Sci Fied';-inkscape-font-specification:'Sci Fied';text-align:start;writing-mode:lr-tb;text-anchor:start;fill:#000000;fill-opacity:1;stroke:none;stroke-width:1px;stroke-linecap:butt;stroke-linejoin:miter;stroke-opacity:1" id="text3592">
            <path id="path4190" d="m 420.96975,234.92583 19.42791,0 q 11.99253,0 20.26738,8.39477 8.27485,8.39478 8.27485,20.38731 0,11.87261 -8.5147,20.38731 -8.39478,8.39477 -20.26738,8.39477 l -38.37611,0 q -11.75269,0 -20.26739,-8.5147 -8.51469,-8.5147 -8.51469,-20.26738 l 0,-38.37611 q 0,-11.75268 8.51469,-20.26738 8.5147,-8.5147 20.26739,-8.5147 l 57.56416,0 q 4.55716,0 7.07559,2.87821 2.51844,2.87821 2.51844,6.71582 0,3.95753 -2.39851,6.59589 -2.63836,2.99813 -7.19552,2.99813 l -57.56416,0 q -3.71769,0 -6.71582,2.99814 -2.87821,2.87821 -2.87821,6.59589 l 0,38.37611 q 0,3.71768 2.87821,6.71582 2.99813,2.87821 6.71582,2.87821 l 38.37611,0 q 3.95753,0 6.71581,-2.75829 2.87821,-2.8782 2.87821,-6.83574 0,-4.07746 -2.63836,-6.83575 -2.63835,-2.75828 -6.71581,-2.75828 l -19.42791,0 q -4.55716,0 -7.19552,-2.99813 -2.39851,-2.63836 -2.39851,-6.5959 0,-3.83761 2.51844,-6.71581 2.51843,-2.87821 7.07559,-2.87821 z" inkscape:connector-curvature="0"></path>
          </g>
        </g>
        <g style="font-style:normal;font-variant:normal;font-weight:normal;font-stretch:normal;font-size:111.37973022px;line-height:125%;font-family:'No Clocks';-inkscape-font-specification:'No Clocks';text-align:start;writing-mode:lr-tb;text-anchor:start;fill:#338000;fill-opacity:1;stroke:none;stroke-width:1px;stroke-linecap:butt;stroke-linejoin:miter;stroke-opacity:1" id="text3598">
          <path id="path4186" d="m 680.75841,512.52056 -6.46002,0 q -10.80384,0 -10.58108,-8.35348 0.11138,-7.79658 10.58108,-7.79658 l 6.46002,0 0,-2.7845 q 0,-8.68761 5.79175,-14.47936 3.78691,-3.78691 6.79416,-4.90071 3.89829,-1.78207 11.69487,-1.78207 l 40.20808,0 q 10.35832,0 10.35832,8.57624 0,8.01934 -10.35832,8.01934 l -48.3388,0 0,7.35106 26.06286,0 q 10.35831,0 10.35831,8.46486 0,7.6852 -10.35831,7.6852 l -26.06286,0 0,16.03868 q 0,3.34139 -2.22759,5.79175 -2.2276,2.45035 -5.56899,2.56173 -3.56415,0 -6.01451,-2.45035 -2.33897,-2.45036 -2.33897,-5.90313 l 0,-16.03868 z m -25.43808,24.39216 0,-39.87394 -69.38957,0 q -9.24452,0 -15.70454,5.68036 -6.68278,5.79175 -6.79416,13.92247 -0.22276,8.35348 6.0145,14.36798 6.46003,5.90313 15.3704,5.90313 l 39.42843,0 14.92488,-14.92488 0,14.92488 16.15006,0 z m -16.26144,-16.37282 -58.80849,0 0,-7.01692 58.80849,0 0,7.01692 z m -144.0836,8.57624 q 0,3.67553 -2.56174,5.90312 -2.45035,2.11622 -5.90312,2.11622 -3.34139,0 -5.90313,-2.11622 -2.45035,-2.11621 -2.45035,-5.90312 -0.33414,-2.00484 0,-12.47453 0.11138,-8.13072 6.79416,-13.92247 6.46003,-5.68036 15.70454,-5.68036 l 44.5519,0 q 10.24693,0 10.35831,8.13072 0.11138,3.78691 -2.67311,6.12588 -2.67312,2.2276 -7.6852,2.2276 l -50.23226,0 0,15.59316 z" inkscape:connector-curvature="0"></path>
        </g>
        <g style="font-style:normal;font-variant:normal;font-weight:normal;font-stretch:normal;font-size:111.37973022px;line-height:125%;font-family:'No Clocks';-inkscape-font-specification:'No Clocks';text-align:start;writing-mode:lr-tb;text-anchor:start;fill:#008686;fill-opacity:1;stroke:none;stroke-width:1px;stroke-linecap:butt;stroke-linejoin:miter;stroke-opacity:1" id="text3602">
          <path id="path4178" d="m 676.08821,481.35437 -75.40407,0 q -4.34381,0 -7.90796,-1.44794 -3.45278,-1.55931 -5.90313,-4.23243 -2.45035,-2.67311 -3.78691,-6.46002 -1.33656,-3.78691 -1.33656,-8.35348 l 0,-11.58349 q 0,-8.799 8.57624,-8.799 7.57382,0 7.57382,8.799 l 0,16.15006 61.0361,0 0,-16.15006 q 0,-8.799 9.24451,-8.799 7.90796,0 7.90796,8.799 l 0,32.07736 z m -196.3642,-8.46486 0,-32.18874 73.39924,0 q 8.799,0 14.81351,6.0145 6.12588,6.01451 6.12588,14.59075 l 0,11.58349 q 0,8.57624 -7.90796,8.57624 -9.24452,0 -9.24452,-8.57624 l 0,-16.15006 -61.03609,0 0,16.15006 q 0,8.57624 -7.57382,8.57624 -8.57624,0 -8.57624,-8.57624 z" inkscape:connector-curvature="0"></path>
        </g>
        <g style="font-style:normal;font-variant:normal;font-weight:normal;font-stretch:normal;font-size:119.92533875px;line-height:125%;font-family:'Sci Fied';-inkscape-font-specification:'Sci Fied';text-align:start;writing-mode:lr-tb;text-anchor:start;fill:#ffcc00;fill-opacity:1;stroke:none;stroke-width:1px;stroke-linecap:butt;stroke-linejoin:miter;stroke-opacity:1" id="text3606">
          <path id="path4172" d="m 419.54119,476.91655 19.42791,0 q 11.99253,0 20.26738,8.39477 8.27485,8.39478 8.27485,20.38731 0,11.87261 -8.5147,20.38731 -8.39477,8.39477 -20.26738,8.39477 l -38.37611,0 q -11.75268,0 -20.26738,-8.5147 -8.5147,-8.5147 -8.5147,-20.26738 l 0,-38.37611 q 0,-11.75268 8.5147,-20.26738 8.5147,-8.5147 20.26738,-8.5147 l 57.56416,0 q 4.55716,0 7.0756,2.87821 2.51843,2.87821 2.51843,6.71582 0,3.95754 -2.39851,6.59589 -2.63836,2.99814 -7.19552,2.99814 l -57.56416,0 q -3.71769,0 -6.71582,2.99813 -2.87821,2.87821 -2.87821,6.59589 l 0,38.37611 q 0,3.71769 2.87821,6.71582 2.99813,2.87821 6.71582,2.87821 l 38.37611,0 q 3.95753,0 6.71582,-2.75828 2.8782,-2.87821 2.8782,-6.83575 0,-4.07746 -2.63835,-6.83574 -2.63836,-2.75829 -6.71582,-2.75829 l -19.42791,0 q -4.55716,0 -7.19552,-2.99813 -2.3985,-2.63836 -2.3985,-6.59589 0,-3.83761 2.51843,-6.71582 2.51843,-2.87821 7.07559,-2.87821 z" inkscape:connector-curvature="0"></path>
        </g>
        <path id="path3610" d="m 464.08009,440.2649 c 1.27944,1.74088 1.92845,3.74408 1.92854,5.97225 -10e-5,2.62624 -0.8036,4.81256 -2.39511,6.56324 -1.75088,1.98958 -4.13029,2.9862 -7.15425,2.98612 l -57.29624,0 c -2.46702,9e-5 -4.69818,0.99669 -6.68767,2.98613 -1.90996,1.91 -2.86172,4.09632 -2.8617,6.56325 l 0,38.19748 c -10e-6,2.46701 0.95175,4.69819 2.8617,6.68767 0.35007,0.33608 0.69272,0.62512 1.05759,0.90206 -1.29693,-1.70865 -1.92855,-3.56607 -1.92854,-5.59898 l 0,-38.19748 c -2e-5,-2.46693 0.95173,-4.65325 2.8617,-6.56325 1.98949,-1.98944 4.22065,-2.98604 6.68767,-2.98613 l 57.29624,0 c 3.02395,8e-5 5.40336,-0.99654 7.15424,-2.98612 1.59152,-1.75068 2.39502,-3.937 2.39512,-6.56324 -10e-5,-2.5465 -0.84844,-4.77766 -2.51954,-6.68767 -0.42385,-0.48435 -0.8889,-0.91381 -1.39975,-1.27533 z m 130.39402,1.33753 c 0.87255,1.41917 1.30642,3.32166 1.30643,5.75451 l 0,16.08152 1.99075,0 0,-14.09077 c -10e-6,-3.861 -1.09954,-6.43737 -3.29718,-7.74526 z m 77.82582,0.0933 c 0.87352,1.41029 1.30639,3.279 1.30643,5.66119 l 0,31.94529 -75.05743,0 c -2.8825,0 -5.50459,-0.50112 -7.86968,-1.46196 -1.6066,-0.72555 -3.04413,-1.64832 -4.32366,-2.73727 0.14707,0.17423 0.28182,0.36116 0.43549,0.5288 1.62599,1.77383 3.5877,3.1645 5.87892,4.19922 2.36509,0.96084 4.98717,1.46196 7.86968,1.46196 l 75.05743,0 0,-31.94529 c -6e-5,-3.77538 -1.10324,-6.3177 -3.29718,-7.65194 z m -105.38524,4.16813 c 3.40587,3.78501 5.13232,8.25938 5.1324,13.46865 l 0,11.54013 c -8e-5,5.69103 -2.62218,8.52289 -7.86967,8.52289 -2.49218,0 -4.46143,-0.4605 -5.94114,-1.39975 1.42948,2.26081 4.06536,3.3905 7.93189,3.3905 5.24749,0 7.86959,-2.83186 7.86967,-8.52289 l 0,-11.54013 c -9e-5,-5.69102 -2.03174,-10.53508 -6.09667,-14.52624 -0.33445,-0.33443 -0.67907,-0.62675 -1.02648,-0.93316 z m -72.69343,8.92726 0,16.08152 c -10e-6,5.69103 -2.50167,8.52289 -7.52751,8.52289 -2.18495,0 -3.94184,-0.40534 -5.28792,-1.24422 1.34648,2.15791 3.77429,3.23497 7.27867,3.23497 5.02584,0 7.5275,-2.83186 7.52751,-8.52289 l 0,-16.08152 58.75819,0 0,-1.99075 -60.74894,0 z M 751.4944,474.0143 c 0.8416,1.29456 1.27528,2.92331 1.27531,4.91467 -6e-5,5.32154 -3.45349,7.99414 -10.327,7.99409 l -48.12012,0 0,7.30978 1.99075,0 0,-5.31903 48.12012,0 c 6.87351,5e-5 10.32694,-2.67255 10.327,-7.9941 -5e-5,-3.20116 -1.09123,-5.50487 -3.26606,-6.90541 z m -292.73334,10.2648 c 4.82604,5.3624 7.24748,11.79365 7.24757,19.25427 -10e-5,7.87847 -2.84167,14.63055 -8.49178,20.28075 -5.57071,5.57064 -12.27796,8.36736 -20.15634,8.36736 l -38.19748,0 c -7.36181,0 -13.77595,-2.52399 -19.22316,-7.55862 0.33108,0.36154 0.67334,0.70446 1.02648,1.05759 5.65019,5.65021 12.38853,8.49178 20.18743,8.49178 l 38.19748,0 c 7.87838,0 14.58563,-2.79672 20.15634,-8.36736 5.65011,-5.6502 8.49168,-12.40228 8.49178,-20.28075 -10e-5,-7.958 -2.75198,-14.74117 -8.24294,-20.31186 -0.32241,-0.32708 -0.66445,-0.62528 -0.99538,-0.93316 z m -46.2538,8.02521 c 0.1741,0.23252 0.36096,0.46547 0.55991,0.68432 1.75071,1.98954 4.16124,2.98615 7.18535,2.98612 l 19.31649,0 c 2.10339,3e-5 3.91711,0.54243 5.44345,1.64859 -0.23008,-0.30608 -0.47405,-0.61718 -0.74652,-0.90206 -1.75084,-1.8303 -3.98202,-2.73724 -6.68768,-2.73728 l -19.31648,0 c -2.26809,2e-5 -4.20272,-0.56058 -5.75452,-1.67969 z m 240.44509,4.6036 0,37.66869 -14.09077,0 0,1.99075 16.08152,0 0,-39.65944 -1.99075,0 z m 76.42607,0.96428 c 0.80911,1.26597 1.21309,2.86307 1.21312,4.79023 -5e-5,5.09979 -3.45348,7.65197 -10.32701,7.65194 l -25.94194,0 0,15.9571 c -4e-5,2.21729 -0.73033,4.1596 -2.20849,5.7856 -1.47823,1.62602 -3.3195,2.44563 -5.53677,2.51954 -1.84554,0 -3.45697,-0.50301 -4.85244,-1.49306 0.25599,0.36762 0.51649,0.71883 0.83984,1.05759 1.62598,1.62601 3.63821,2.42622 6.00335,2.42622 2.21727,-0.0739 4.05853,-0.89352 5.53677,-2.51954 1.47816,-1.626 2.20845,-3.56831 2.20849,-5.7856 l 0,-15.95711 25.94194,0 c 6.87352,2e-5 10.32695,-2.55214 10.32701,-7.65193 -5e-5,-3.13115 -1.06803,-5.39524 -3.20387,-6.78098 z m -176.89666,0.68432 c 0.74778,1.1892 1.12663,2.67847 1.1509,4.44808 0.0738,2.51296 -0.79629,4.54458 -2.64395,6.09666 -1.77393,1.47822 -4.32609,2.20851 -7.65194,2.20848 l -49.98645,0 0,15.52162 c -1e-5,2.43901 -0.85075,4.40074 -2.55065,5.87893 -1.62602,1.4043 -3.58775,2.11517 -5.87893,2.11517 -1.91578,10e-6 -3.63396,-0.53806 -5.1635,-1.58639 0.3472,0.53982 0.77285,1.02803 1.27532,1.46197 1.69991,1.40429 3.66163,2.11517 5.87893,2.11516 2.29118,0 4.25291,-0.71086 5.87893,-2.11516 1.6999,-1.47819 2.55064,-3.43992 2.55065,-5.87893 l 0,-15.52163 49.98645,0 c 3.32585,3e-5 5.87801,-0.73025 7.65194,-2.20847 1.84766,-1.55209 2.7178,-3.58371 2.64395,-6.09667 -0.0405,-2.95561 -1.08284,-5.1023 -3.14165,-6.43882 z m 111.88628,10.07816 c 1.53081,2.45411 4.68585,3.67044 9.45606,3.67043 l 4.44808,0 0,-1.99074 -6.43882,0 c -3.22959,10e-6 -5.72058,-0.55481 -7.46532,-1.67969 z m -86.16207,2.67506 0,6.99872 1.99075,0 0,-5.00798 56.54969,0 0,-1.99074 -58.54044,0 z m 58.10496,8.98947 -14.3085,14.2774 -39.25506,0 c -5.66965,0 -10.56941,-1.77956 -14.74399,-5.38124 0.44632,0.51734 0.95009,1.03058 1.46196,1.52417 4.28673,3.91722 9.35998,5.84782 15.27277,5.84782 l 39.25507,0 12.87765,-12.84655 0,-3.4216 -0.5599,0 z" style="font-style:normal;font-variant:normal;font-weight:normal;font-stretch:normal;font-size:111.37973022px;line-height:125%;font-family:'No Clocks';-inkscape-font-specification:'No Clocks';text-align:start;writing-mode:lr-tb;text-anchor:start;fill:#ffffff;fill-opacity:1;stroke:none;stroke-width:1px;stroke-linecap:butt;stroke-linejoin:miter;stroke-opacity:1" inkscape:connector-curvature="0"></path>
      </g>
    </g>
  </g>
</svg>
